<?xml version="1.0" encoding="UTF-8"?>
<svg width="250px" height="250px" view-box="0 0 250 250" version="1.1" xmlns="http://www.w3.org/2000/svg" xmlns:xlink="http://www.w3.org/1999/xlink">
	<polygon points="0,0 0,250 250,250 250,0" fill="black" stroke="none" />
	<path stroke="white" stroke-width="12.5" fill="black" d="
		M 25 125
		L 85 225
		Q 125 45 165 225
		L 225 125
		L 125 50
		Q 25 -25 25 70
		A 100,50 0 1,0 225,70
		Q 220 -30 125 50
		L 25 125
		Z
	" />
	<path stroke="white" stroke-width="12.5" fill="tomato" d="
		M 125 50
		L 52.45108975000,104.41168268749
		A 100,50 0 0,0 197.54891025000,105.41168268749
		L 125 50
		Z
	" />
	<!--
	<path stroke="black" stroke-width="1" fill="none" d="
		M 20 65
		A 100,50 0 1,0 220,65
		Q 220 -30 120 45
		Q 20 -30 20 65
		Z
	" />
	// -->
</svg>
